<svg width="250" height="90" viewBox="0 0 250 90" fill="none" xmlns="http://www.w3.org/2000/svg"><g clip-path="url(#clip0_3700_1897)"><path d="M57.45 49v-9.45h3.537c2.133 0 3.537 1.134 3.537 2.997v.027c0 2.038-1.7 3.092-3.712 3.092h-2.295V49H57.45zm1.067-4.306h2.335c1.566 0 2.592-.838 2.592-2.08v-.026c0-1.35-1.012-2.053-2.538-2.053h-2.39v4.159zM68.357 49v-9.45h6.832v.972h-5.765v3.227h5.157v.971h-5.157v3.308h5.832V49h-6.898zm10.935 0v-9.45h4.063c1.161 0 2.093.351 2.687.945.459.459.729 1.12.729 1.863v.027c0 1.566-1.08 2.484-2.565 2.754L87.108 49h-1.31l-2.74-3.672h-2.7V49h-1.066zm1.066-4.63h2.903c1.417 0 2.43-.73 2.43-1.944v-.028c0-1.16-.891-1.863-2.417-1.863h-2.916v3.835zM90.938 49v-9.45h6.79v.986h-5.724v3.374h5.117v.973h-5.117V49h-1.067zm10.749 0v-9.45h6.831v.972h-5.765v3.227h5.157v.971h-5.157v3.308h5.832V49h-6.898zm15.254.162c-2.727 0-4.739-2.146-4.739-4.86v-.027c0-2.673 1.998-4.887 4.779-4.887 1.715 0 2.741.608 3.686 1.498l-.729.783c-.797-.755-1.688-1.295-2.97-1.295-2.093 0-3.659 1.7-3.659 3.874v.027c0 2.187 1.58 3.901 3.659 3.901 1.296 0 2.146-.499 3.051-1.363l.702.688c-.986 1-2.066 1.661-3.78 1.661zM126.975 49v-8.465h-3.172v-.985h7.425v.986h-3.173V49h-1.08zm17.324.135c-1.499 0-2.727-.5-3.861-1.512l.661-.783c.986.891 1.931 1.336 3.24 1.336 1.269 0 2.106-.675 2.106-1.606v-.027c0-.877-.472-1.377-2.457-1.795-2.173-.473-3.172-1.175-3.172-2.727v-.028c0-1.485 1.309-2.578 3.105-2.578 1.377 0 2.362.392 3.321 1.161l-.621.824c-.878-.716-1.755-1.026-2.727-1.026-1.229 0-2.012.674-2.012 1.525v.027c0 .891.486 1.39 2.565 1.836 2.106.459 3.078 1.228 3.078 2.673v.027c0 1.62-1.35 2.673-3.226 2.673zm9.585-.135v-8.465h-3.173v-.985h7.425v.986h-3.172V49h-1.08zm8.146 0v-9.45h6.831v.972h-5.764v3.227h5.157v.971h-5.157v3.308h5.832V49h-6.899zm10.124 0l4.307-9.517h.999L181.766 49h-1.147l-1.107-2.498h-5.144L173.248 49h-1.094zm2.633-3.47h4.306l-2.146-4.806-2.16 4.807zM185.52 49v-9.45h1.066v5.643l5.427-5.643h1.377l-4.05 4.131L193.566 49h-1.337l-3.631-4.577-2.012 2.039V49h-1.066z" fill="#fff"/></g><defs><clipPath id="clip0_3700_1897"><path fill="#fff" d="M0 0h250v90H0z"/></clipPath></defs></svg>